<?xml version="1.0" encoding="utf-8"?>
<!-- Generator: Adobe Illustrator 28.0.0, SVG Export Plug-In . SVG Version: 6.00 Build 0)  -->
<svg version="1.1" id="Capa_1" xmlns="http://www.w3.org/2000/svg" xmlns:xlink="http://www.w3.org/1999/xlink" x="0px" y="0px"
	 viewBox="0 0 30.5 30.2" style="enable-background:new 0 0 30.5 30.2;" xml:space="preserve">
<style type="text/css">
	.st0{fill:#F3C2AF;}
</style>
<g>
	<path class="st0" d="M4.1,23.8c0-0.2,0-0.4,0-0.5c0-7,0-14,0-21c0-1,0.6-1.6,1.7-1.6c6.6,0,13.2,0,19.8,0c1.4,0,2.4,0.6,2.8,1.8
		c0.3,0.8,0.2,1.6-0.2,2.3c-0.2,0.3-0.4,0.4-0.7,0.4c-1.1,0-2.3,0-3.5,0c0,1.5,0,3,0,4.6c0.4-0.5,0.8-0.9,1.2-1.4
		c0.3-0.3,0.5-0.6,0.5-1.1c0-0.6,0.7-1.1,1.3-1.1c0.6,0,1.2,0.5,1.3,1.1c0.1,0.6-0.4,1.3-1,1.4c-0.3,0-0.4,0.2-0.5,0.3
		c-0.9,1.2-1.7,2.3-2.6,3.5c-0.1,0.1-0.1,0.3-0.1,0.5c0,4.3,0,8.7,0,13c0,1.5-1.1,2.6-2.7,2.6c-5.6,0-11.1,0-16.7,0
		c-0.3,0-0.6,0-0.9,0c-1.5,0-2.6-1-2.6-2.4c0-1.3,1.1-2.4,2.5-2.5C3.7,23.8,3.9,23.8,4.1,23.8z M18.9,19.4c-0.1,0.3-0.2,0.6-0.2,0.8
		c0,0.3-0.2,0.4-0.5,0.6c-0.9,0.4-1.7,0.9-2.6,1.3c-0.1,0.1-0.4,0.1-0.5,0c-0.1-0.1-0.2-0.4-0.1-0.5c0.2-0.9,0.4-1.8,0.6-2.8
		c0.1-0.2,0.2-0.4,0.4-0.5c0.3-0.1,0.6-0.3,0.9-0.5c-0.3-0.3-0.4-0.6-0.2-1c0.2-0.4,0.6-0.5,1-0.4c0-0.1,0.1-0.1,0.1-0.2
		c0.4-1.3,1.2-2.2,2.3-2.9c1-0.6,1.8-1.3,2.5-2.2c0.1-0.1,0.1-0.2,0.2-0.2c0.2-0.2,0.3-0.5,0.3-0.8c0-2.3,0-4.5,0-6.8
		c0-0.7,0.2-1.3,0.6-1.8c0-0.1,0.1-0.1,0.1-0.2c-0.1,0-0.1,0-0.2,0c-6,0-12,0-18,0c-0.6,0-0.8,0.2-0.8,0.8c0,7,0,14.1,0,21.1
		c0,0.1,0,0.2,0,0.4c0.2,0,0.4,0,0.5,0c5.2,0,10.4,0,15.6,0c0.2,0,0.3,0,0.5,0c0.1,0.1,0.2,0.2,0.2,0.4c0,0.1-0.2,0.2-0.3,0.3
		c0,0-0.1,0-0.2,0c-1.1,0.1-1.7,1-1.5,2c0.2,1,1.1,1.5,2.1,1.3c0.8-0.2,1.3-0.9,1.3-1.8c0-3.9,0-7.8,0-11.8c0-0.1,0-0.1,0-0.2
		c-0.5,1.7-1.1,3.3-2.9,4.1C20.3,19.3,19.8,19.7,18.9,19.4z M19.5,24.6c-0.1,0-0.2,0-0.3,0c-5.2,0-10.4,0-15.6,0c-0.1,0-0.2,0-0.3,0
		c-0.8,0.1-1.5,0.8-1.5,1.6c0,1.1,0.7,1.8,1.9,1.8c5.2,0,10.3,0,15.5,0c0.1,0,0.2,0,0.3,0C18.7,26.8,18.6,25.7,19.5,24.6z M25.5,9.3
		C25.4,9.3,25.4,9.3,25.5,9.3c-0.2,0.1-0.4,0.3-0.5,0.5c-0.9,1-1.8,2.1-2.7,3.1c-0.3,0.3-0.7,0.6-1.1,0.8c-1.1,0.6-2,1.4-2.5,2.5
		c-0.3,0.7-0.3,0.7,0.3,1.2c0.6,0.4,0.6,0.4,1.2,0c0,0,0.1,0,0.1-0.1c1-0.7,1.5-1.6,1.7-2.8c0.1-0.6,0.4-1.2,0.8-1.7
		c0.7-0.9,1.3-1.8,2-2.6C25,9.9,25.2,9.6,25.5,9.3z M23.8,4.4c0.1,0,0.1,0.1,0.1,0.1c1.1,0,2.2,0,3.3,0c0.1,0,0.2-0.1,0.3-0.2
		c0.5-0.9,0-2.1-0.9-2.5c-1.1-0.5-2.4,0-2.7,1.1C23.8,3.3,23.9,3.9,23.8,4.4z M16.2,20.1c0,0,0.1,0,0.1,0c0.1-0.2,0.2-0.5,0.2-0.7
		c0.1-0.3,0.4-0.6,0.7-0.6c0.3,0,0.6,0.3,0.6,0.5c0.1,0.3-0.2,0.6-0.4,0.8c-0.2,0.1-0.4,0.2-0.6,0.3c0,0,0,0.1,0.1,0.1
		c0,0,0.1,0,0.1,0c0.7-0.2,1.1-0.7,1.2-1.4c0-0.2,0-0.4-0.2-0.5c-0.2-0.2-0.4-0.2-0.6,0c-0.2,0.1-0.5,0.2-0.7,0.4
		c-0.1,0.1-0.2,0.1-0.2,0.2C16.3,19.5,16.2,19.8,16.2,20.1z M27.3,7.6c0-0.3-0.3-0.5-0.5-0.5c-0.3,0-0.5,0.2-0.5,0.5
		c0,0.3,0.2,0.5,0.5,0.5C27.1,8,27.3,7.8,27.3,7.6z"/>
	<path class="st0" d="M12.5,4.9c1-0.9,2.1-1.1,3.3-0.6C17,4.9,17.6,5.8,17.6,7c0.3,0.1,0.7,0.2,0.9,0.3c1.4,0.8,1.5,2.5,0.2,3.4
		c-0.3,0.2-0.6,0.3-0.8,0.5c-0.9,0.4-1.7,0.9-2.3,1.5c-0.4,0.4-0.6,0.3-0.8-0.2c-0.1-0.4-0.3-0.8-0.5-1.2c0,0-0.1,0-0.1,0
		c-0.4,0.6-0.9,1.2-1.3,1.8c-0.3,0.5-0.6,0.5-0.9,0c-0.8-1.3-1.8-2.4-3-3.3C8.5,9.4,8.1,8.9,7.8,8.5C6.9,7.2,7.3,5.6,8.5,4.7
		C9.7,3.9,11.3,3.9,12.5,4.9z M12.4,12.3c0.5-0.5,0.9-1.1,1.3-1.6c0.1-0.1,0-0.3,0-0.4c-0.2-0.3-0.4-0.6-0.6-0.9
		c-0.3-0.5-0.4-1-0.2-1.6c0.2-0.8,0.8-1.2,1.5-1.4c0.8-0.2,1.5,0,2.1,0.6c0.1,0.1,0.2,0.1,0.2,0.2c0-0.1,0.1-0.2,0.1-0.2
		c0.1-0.8-0.6-1.7-1.5-2c-1-0.3-1.9,0-2.5,0.8c-0.2,0.4-0.5,0.4-0.8,0c-0.2-0.2-0.4-0.5-0.6-0.6C10.1,4.3,8.1,5.4,8.1,7
		c0,0.8,0.4,1.4,1,1.9C10.4,9.9,11.6,10.9,12.4,12.3z M15.5,11.8c0.7-0.7,1.7-1.1,2.7-1.6c0.2-0.1,0.3-0.2,0.4-0.3
		C19,9.4,19,8.7,18.5,8.2c-0.5-0.5-1.3-0.5-1.8-0.1c-0.3,0.3-0.5,0.2-0.7-0.2c-0.2-0.5-0.5-0.7-1.1-0.8c-0.6,0-1,0.2-1.3,0.7
		c-0.3,0.5-0.2,1,0.1,1.4C14.4,10.1,14.9,10.9,15.5,11.8z"/>
	<path class="st0" d="M10.3,18c1.1,0,2.1,0,3.2,0c0.2,0,0.4,0,0.5,0.3c0,0.2-0.1,0.4-0.3,0.5c-0.1,0-0.1,0-0.2,0c-2.1,0-4.2,0-6.2,0
		c-0.1,0-0.3,0-0.4-0.1c-0.1-0.1-0.2-0.3-0.1-0.4C6.7,18.2,6.9,18,7,18c0.7,0,1.3,0,2,0C9.4,18,9.9,18,10.3,18z"/>
	<path class="st0" d="M10.3,16.3c-1,0-2.1,0-3.1,0c-0.3,0-0.5,0-0.6-0.4c0-0.3,0.2-0.4,0.6-0.4c2.1,0,4.2,0,6.3,0
		c0.3,0,0.5,0,0.5,0.4c0,0.3-0.2,0.4-0.6,0.4C12.4,16.3,11.3,16.3,10.3,16.3z"/>
	<path class="st0" d="M9.4,20.5c0.8,0,1.6,0,2.4,0c0.3,0,0.5,0.1,0.5,0.4c0,0.3-0.2,0.4-0.5,0.4c-1.6,0-3.1,0-4.7,0
		c-0.3,0-0.5-0.1-0.5-0.4c0-0.3,0.3-0.4,0.5-0.4C7.9,20.5,8.7,20.5,9.4,20.5z"/>
</g>
</svg>
