<?xml version="1.0" encoding="utf-8"?>
<!-- Generator: Adobe Illustrator 28.0.0, SVG Export Plug-In . SVG Version: 6.00 Build 0)  -->
<svg version="1.1" id="Capa_1" xmlns="http://www.w3.org/2000/svg" xmlns:xlink="http://www.w3.org/1999/xlink" x="0px" y="0px"
	 viewBox="0 0 242.1 35.6" style="enable-background:new 0 0 242.1 35.6;" xml:space="preserve">
<style type="text/css">
	.st0{fill-rule:evenodd;clip-rule:evenodd;fill:#FFFFFF;}
	.st1{fill:#FFFFFF;}
</style>
<path class="st0" d="M99.8,26.9c0.4-0.3,1.5-1.6,3-2.8c3.2-2.5,7.3-5,8.3-9.2c0.8-3.8-1.2-6.7-3.7-7.7c-4.6-1.9-6.6,2.3-7.6,3.2
	c-0.4-0.4-0.8-1.1-1.2-1.5s-1.1-1-1.6-1.4c-5.8-3.6-14.1,6.3-3.5,14.1l4.8,3.9C98.8,25.9,99.3,26.5,99.8,26.9L99.8,26.9L99.8,26.9z"
	/>
<g>
	<path class="st1" d="M2.7,14.1c0.5,0.9,1.1,1.7,1.8,2.5c0.7,0.7,1.5,1.3,2.5,1.7s1.8,0.8,2.8,1.1c1,0.3,2,0.5,3.1,0.5
		c0.3-0.5,0.5-1.2,0.7-1.7c0.2-0.5,0.5-1.2,0.7-1.7c0.6-1.5,1.3-2.9,1.9-4.4c0.6-1.5,1.5-2.8,2.3-4.2c0.5-0.7,1.1-1.5,1.7-2.2
		c0.7-0.8,1.5-1.5,2.4-2.1c0.8-0.6,1.7-1.2,2.7-1.5s1.9-0.5,2.9-0.5c0.6,0.1,1.2,0.3,1.7,0.6c0.5,0.4,0.9,0.8,1.2,1.4
		c0.4,0.6,0.5,1.4,0.5,2.1c0,0.7-0.1,1.5-0.3,2.2C31.3,8.6,31,9.2,30.7,10c-0.4,0.7-0.7,1.3-1.1,1.8c-0.9,1.2-1.8,2.4-2.9,3.5
		s-2.3,2-3.5,2.8c-1,0.7-2.1,1.4-3.3,1.9c-1.1,0.5-2.3,0.9-3.6,1.3c-0.3,0.5-0.6,1-0.9,1.5c-0.4,0.5-0.6,0.9-1,1.4
		c0.8,0.3,1.8,0.7,2.8,1.2c1.1,0.5,2.1,1,3.2,1.4c1.1,0.5,2.1,0.7,3,0.9c1,0.2,1.8,0.1,2.5-0.3c0.1-0.1,0.2-0.1,0.4-0.3
		c0.2-0.1,0.3-0.2,0.3-0.1c0.1,0.1,0.1,0.4,0,0.7c-0.1,0.4-0.2,0.6-0.3,0.8c-0.5,0.8-1.1,1.4-1.9,1.6c-0.8,0.3-1.5,0.5-2.5,0.5
		c-0.8,0-1.7-0.1-2.5-0.4c-0.8-0.2-1.6-0.5-2.4-0.7c-1-0.4-2-0.7-3-1.2c-1-0.5-1.9-0.8-2.9-1.3c-0.9,0.7-2,1.3-3,1.5
		C7,28.9,5.9,29,4.8,28.9c-0.6,0-1.2-0.2-1.6-0.5c-0.5-0.3-0.9-0.5-1.2-1c-0.3-0.4-0.4-0.8-0.4-1.4s0.3-1.1,0.7-1.6
		c0.5-0.5,1.2-0.9,1.9-1.3c0.7-0.3,1.5-0.5,2.3-0.5c0.8-0.1,1.6-0.1,2.5,0.1c0.8,0.1,1.6,0.3,2.5,0.5l0.6-1.4
		c-1.1,0-2.3-0.1-3.4-0.3c-1.1-0.4-2.1-0.7-3.1-1.3C5,20,4.3,19.6,3.8,19.1c-0.5-0.5-1-1.1-1.4-1.7c-0.2-0.4-0.3-0.7-0.4-1.1
		c-0.1-0.4-0.1-0.8,0-1.2c0,0,0-0.1,0.1-0.3c0.1-0.2,0.1-0.3,0.2-0.5c0.1-0.1,0.1-0.3,0.2-0.3C2.6,14.1,2.7,14.1,2.7,14.1z
		 M6.8,27.9c0.5-0.1,1-0.4,1.5-0.6c0.5-0.3,0.8-0.5,1.2-0.9l-1.6-0.6c-0.5-0.2-1-0.3-1.5-0.3s-1,0-1.5,0.1c-0.5,0.1-0.8,0.3-1.1,0.5
		c-0.3,0.3-0.4,0.5-0.4,0.9c0,0.3,0.2,0.5,0.4,0.6c0.2,0.2,0.5,0.3,0.8,0.4c0.4,0.1,0.7,0.1,1.1,0.1C6,28,6.3,28,6.8,27.9z
		 M18.9,16.1c-0.3,0.6-0.5,1.2-0.7,1.8c-0.3,0.6-0.5,1.2-0.8,1.7c1.1-0.3,2.1-0.6,3.1-1.2c1-0.5,1.9-1.2,2.8-1.9
		c0.9-0.8,1.7-1.7,2.4-2.7c0.7-1,1.3-2.1,1.7-3.2s0.8-2.3,0.9-3.4c0.1-0.5,0.1-0.9,0-1.5c-0.1-0.5-0.2-1-0.5-1.4
		c-0.2-0.4-0.5-0.6-0.9-0.8c-0.4-0.2-0.9-0.1-1.5,0.2c-0.5,0.3-0.9,0.5-1.3,1c-0.4,0.5-0.7,0.8-1,1.4c-0.3,0.5-0.5,1-0.7,1.5
		c-0.2,0.5-0.5,1-0.6,1.5c-0.5,1.2-1,2.4-1.4,3.6C19.9,13.7,19.5,14.9,18.9,16.1z"/>
	<path class="st1" d="M44.3,21.2c0.1-0.2,0.2-0.4,0.3-0.4c0.1-0.1,0.3-0.1,0.4,0s0.2,0.1,0.3,0.3c0.1,0.2,0,0.3,0,0.5
		c-0.7,1.9-1.6,3.4-2.8,4.5c-1.3,1-2.5,1.5-3.9,1.5c-0.9,0-1.6-0.3-2.2-0.7s-0.8-1.2-0.9-2.1c-0.5,0.9-1.1,1.6-1.7,2.1
		c-0.6,0.5-1.4,0.7-2.2,0.7c-1.6,0-2.7-0.7-3.3-2.2s-0.4-3.6,0.5-6.2c0.3-0.8,0.5-1.6,0.9-2.5c0.4-0.8,0.8-1.5,1.3-2.2
		c0.5-0.6,1-1.1,1.6-1.5c0.6-0.4,1.3-0.5,2.1-0.5h1.1c-0.7,1.5-1.5,3.1-2.1,4.7c-0.6,1.6-1.2,3.2-1.5,4.6c-0.4,1.4-0.5,2.5-0.6,3.4
		c0,0.9,0.2,1.4,0.6,1.4c0.4,0,0.7-0.2,1-0.5c0.4-0.3,0.7-0.7,1-1.2c0.4-0.5,0.6-1,1-1.6c0.3-0.5,0.5-1.2,0.8-1.7
		c0-0.1,0-0.1,0.1-0.2l2.2-6.3c0.3-0.7,0.7-1.3,1.4-1.7c0.6-0.5,1.3-0.6,2.1-0.6h2c-0.6,1.7-1.2,3.3-1.6,4.7
		c-0.2,0.6-0.5,1.3-0.6,1.9s-0.5,1.3-0.6,1.8c-0.2,0.5-0.4,1.1-0.5,1.5c-0.2,0.5-0.3,0.7-0.4,1c-0.4,0.9-0.5,1.5-0.4,1.9
		c0.1,0.4,0.3,0.5,0.6,0.5c0.2,0,0.5-0.1,0.8-0.3c0.4-0.2,0.6-0.5,1.1-0.8c0.4-0.4,0.8-0.8,1.2-1.5C43.6,22.8,43.9,22.1,44.3,21.2z"
		/>
	<path class="st1" d="M54.9,14.3c-0.3-0.7-0.8-1-1.5-1c-0.6,0-1.2,0.4-1.7,1c-0.5,0.6-1.1,1.5-1.5,2.5c-0.5,1-0.8,2-1,3.2
		c-0.3,1.1-0.4,2.2-0.4,3.2c0,1,0.2,1.8,0.5,2.5c0.3,0.6,0.7,1,1.5,1c1.2,0,2.2-0.5,3.2-1.3c1-0.8,1.9-2.2,2.8-4
		c0.1-0.2,0.2-0.3,0.4-0.4c0.1-0.1,0.3-0.1,0.4,0c0.1,0,0.2,0.1,0.3,0.3s0,0.3,0,0.5c-0.5,1.1-1,2-1.5,2.8c-0.5,0.8-1.2,1.5-1.9,2
		c-0.6,0.5-1.4,0.9-2.1,1.2c-0.7,0.3-1.5,0.4-2.1,0.4c-1.6,0-2.9-0.4-3.7-1.2c-0.9-0.7-1.5-1.7-1.6-2.9c-0.2-1.2-0.2-2.5,0.3-3.8
		c0.5-1.4,1-2.6,1.8-3.8s1.9-2.2,3.2-2.9c1.3-0.7,2.7-1.2,4.3-1.2c0.6,0,1.2,0.1,1.6,0.4c0.5,0.3,0.7,0.5,0.9,0.9
		c0.2,0.3,0.2,0.5,0.1,0.8c-0.1,0.3-0.3,0.5-0.5,0.6c-0.5-0.1-0.7,0-1-0.1C55.1,14.9,55,14.7,54.9,14.3z"/>
	<path class="st1" d="M73.6,21.2c0.1-0.2,0.2-0.4,0.3-0.4c0.1-0.1,0.3-0.1,0.4,0s0.2,0.1,0.3,0.3c0.1,0.2,0.1,0.3,0,0.5
		c-0.7,1.9-1.6,3.4-2.8,4.5c-1.2,1.1-2.5,1.6-3.8,1.6c-0.9,0-1.6-0.3-2.2-0.7c-0.5-0.5-0.9-1.3-0.9-2.2c-0.5,0.7-1.3,1.4-2.1,2
		c-0.8,0.6-1.7,0.9-2.7,0.9c-1.1,0-1.9-0.4-2.5-1.1c-0.6-0.7-1-1.6-1.1-2.8c-0.1-1.2,0.1-2.4,0.5-3.6c0.4-1.3,1-2.5,1.9-3.6
		c0.9-1.1,2-2.1,3.5-2.8s3.1-1.1,5-1.1c1.4,0,2.4,0.2,3.2,0.5c0.7,0.4,1.4,0.9,1.8,1.6c-0.5,1.5-1,2.8-1.4,4c-0.2,0.5-0.4,1-0.5,1.5
		s-0.4,1-0.5,1.4c-0.2,0.5-0.3,0.8-0.4,1.1c-0.1,0.3-0.2,0.5-0.2,0.6c-0.4,0.9-0.5,1.5-0.4,1.9c0.1,0.4,0.3,0.5,0.6,0.5
		c0.2,0,0.5-0.1,0.8-0.3c0.4-0.2,0.7-0.5,1.1-0.8c0.4-0.4,0.7-0.8,1.2-1.5C72.9,22.8,73.3,22.1,73.6,21.2z M67.9,14.1
		c-0.1-0.1-0.2-0.3-0.4-0.5c-0.2-0.2-0.5-0.2-0.8-0.2c-0.7,0-1.5,0.3-2.1,0.9c-0.6,0.6-1.3,1.4-1.8,2.3c-0.5,0.9-1,1.9-1.4,3
		c-0.4,1.1-0.6,2.1-0.8,3c-0.2,0.9-0.2,1.7-0.1,2.3c0.1,0.6,0.4,0.9,0.8,0.9c0.3,0,0.5-0.1,0.9-0.3c0.3-0.2,0.5-0.5,0.8-0.7
		c0.3-0.3,0.5-0.6,0.7-1c0.3-0.4,0.5-0.8,0.6-1.2c0.5-0.9,0.9-2,1.4-3.2L67.9,14.1z"/>
	<path class="st1" d="M83.9,13.7c0.2,0.3,0.2,0.5,0.1,0.8c-0.1,0.3-0.3,0.5-0.5,0.6s-0.5,0.2-0.7,0.1c-0.3-0.1-0.5-0.3-0.6-0.5
		c-0.3-0.7-0.8-1.1-1.5-1.1c-0.4,0-0.8,0.2-1.2,0.5c-0.4,0.4-0.5,0.8-0.5,1.4s0.2,1.1,0.5,1.5c0.4,0.5,0.7,1,1.1,1.5s0.7,1.2,1,1.9
		c0.3,0.7,0.4,1.5,0.3,2.6c-0.1,0.9-0.4,1.7-0.8,2.3c-0.5,0.5-0.9,1-1.5,1.4c0.8-0.2,1.6-0.5,2.3-0.8c0.6-0.4,1.3-0.8,1.8-1.4
		c0.5-0.5,1-1.1,1.4-1.6c0.4-0.5,0.7-1.2,0.9-1.7c0.1-0.2,0.2-0.4,0.3-0.4c0.1-0.1,0.3-0.1,0.4,0c0.1,0.1,0.2,0.1,0.2,0.3
		c0.1,0.2,0,0.3,0,0.5c-0.3,0.6-0.6,1.4-1.2,2.2c-0.5,0.7-1.2,1.5-1.9,2.2c-0.7,0.6-1.6,1.2-2.7,1.6c-1.1,0.5-2.2,0.6-3.4,0.6
		c-0.7,0-1.3,0-1.8-0.1s-1-0.2-1.4-0.3h-0.4c-0.8,0-1.5-0.1-2-0.4c-0.5-0.3-0.8-0.5-1-0.8c-0.2-0.3-0.3-0.6-0.3-1
		c0-0.4,0.2-0.6,0.4-0.9c0.2-0.3,0.5-0.4,0.7-0.4c0.3,0,0.5,0.1,0.9,0.5c0.3,0.3,0.5,0.5,0.8,0.8c0.3,0.4,0.7,0.6,1.3,0.9
		c0.5-0.2,1.1-0.5,1.6-1c0.5-0.5,0.9-1.2,1.2-2c0.2-0.5,0.2-0.9,0.1-1.4s-0.3-0.8-0.5-1.3c-0.3-0.5-0.5-0.8-0.8-1.3
		c-0.3-0.5-0.5-0.8-0.7-1.3c-0.2,0.5-0.4,1.2-0.5,1.7s-0.4,1.1-0.5,1.5c-0.1,0.3-0.3,0.5-0.5,0.6s-0.3,0.2-0.4,0.1s-0.2-0.2-0.2-0.4
		c0-0.2,0-0.5,0.1-0.7c0.7-2.1,1.4-3.9,1.8-5.4c0.3-1,0.9-1.8,2-2.4c1.1-0.5,2.4-0.8,3.8-0.8c0.6,0,1.2,0.1,1.6,0.4
		C83.3,13.5,83.6,13.3,83.9,13.7z"/>
</g>
<g>
	<path class="st1" d="M142.4,5.4c-0.7,1.5-1.5,2.9-2,4.5c-0.6,1.5-1.1,3-1.5,4.6c-0.4,1.5-0.6,3-0.8,4.6c-0.2,1.5-0.1,3.2,0.2,4.6
		c0.2,0.9,0.5,1.6,1.1,2.3c0.5,0.6,1.2,1.3,1.9,1.9c0.2,0.1,0.2,0.3,0.1,0.3c-0.1,0-0.2,0.2-0.5,0.2c-0.2,0.1-0.5,0.1-0.6,0.1
		c-0.3,0-0.5,0-0.6,0c-0.5-0.1-1-0.2-1.5-0.3c-0.5-0.2-0.9-0.4-1.4-0.7c-0.8-0.6-1.5-1.4-2-2.3c-0.5-0.9-0.7-1.9-0.7-2.9
		c-0.1-1.2-0.4-2.1-0.8-2.9c-0.5-0.7-1.1-1.5-1.8-2.2c-0.7,1-1.5,2-2.2,3c-0.7,1-1.5,1.9-2.4,2.9c-0.7,0.8-1.5,1.6-2.3,2.4
		c-0.8,0.7-1.6,1.4-2.5,2c-0.8,0.5-1.6,1-2.5,1.4c-0.9,0.4-1.8,0.5-2.8,0.5c-1.3-0.1-2.3-0.5-3-1.2c-0.7-0.7-1.2-1.5-1.5-2.5
		c-0.3-1-0.4-2.1-0.3-3.2c0.1-1.2,0.3-2.2,0.5-3.1c0.4-1.1,0.8-2.1,1.4-3.1c0.6-0.9,1.4-1.7,2.2-2.5c0.2-0.1,0.4-0.3,0.5-0.4
		c0.2-0.1,0.4-0.3,0.5-0.4c-0.1-0.4-0.1-0.7-0.1-1s0-0.7,0-1c0.1-0.7,0.2-1.5,0.3-2.3c0.2-0.7,0.4-1.5,0.7-2.2
		c0.5-1.3,1.4-2.2,2.3-2.9c1-0.7,2.1-1.2,3.5-1.5c1.5-0.3,3.2-0.3,4.7-0.1c1.5,0.3,3.1,0.5,4.6,0.9c0.8,0.2,1.5,0.4,2.4,0.5
		c0.8,0.2,1.5,0.3,2.4,0.4c0.7-0.4,1.5-0.6,2.2-0.9c0.7-0.2,1.6-0.3,2.5-0.1c0.5,0.1,0.8,0.3,0.9,0.5s0,0.5-0.2,0.7
		c-0.2,0.3-0.5,0.5-1,0.6c-0.5,0.2-1,0.2-1.5,0.1c-0.4,0.4-0.7,0.7-1,1.1c-0.4,0.4-0.6,0.7-0.9,1.1c-0.7,0.9-1.4,1.7-2,2.6
		c-0.6,0.9-1.3,1.8-1.9,2.8l-2.6,3.9c0.4,0.4,0.7,0.7,1.1,1.2s0.6,0.9,1,1.4c0.3-1.5,0.8-3.1,1.5-4.6s1.5-2.8,2.4-4.2
		c0.5-0.9,1.2-1.7,1.7-2.5c0.6-0.8,1.3-1.6,2-2.4C142.2,5.3,142.4,5.3,142.4,5.4C142.4,5.2,142.4,5.3,142.4,5.4z M122.8,22.7
		c0.9-1.3,1.8-2.5,2.6-3.8c0.8-1.3,1.6-2.6,2.5-3.9c-1.5-0.6-3.2-1-4.8-1c-0.6,0-1.3,0.1-1.9,0.2c-0.6,0.1-1.3,0.3-1.8,0.5
		c0.2,0.2,0.3,0.4,0.5,0.5c0.2,0.2,0.4,0.3,0.5,0.4c0.5,0.3,1,0.5,1.5,0.5c0.5,0.1,1.1,0,1.7-0.1c0.1,0,0.1,0.1,0.1,0.2
		s-0.1,0.3-0.2,0.4c-0.1,0.2-0.2,0.3-0.3,0.4c-0.1,0.1-0.2,0.2-0.2,0.2c-0.5,0.5-1.1,0.6-1.7,0.6c-0.7,0-1.5-0.2-2.1-0.6
		c-0.6-0.5-1.1-1-1.5-1.6c-2,1.4-3.3,3.1-4,5.1c-0.2,0.5-0.3,0.9-0.5,1.5c-0.1,0.5-0.2,1.1-0.2,1.6c0,0.5,0,1.1,0.2,1.5
		c0.1,0.5,0.4,1,0.6,1.4c0.5,0.6,1.1,1,1.9,1.1c0.7,0.1,1.5-0.1,2.2-0.4c1-0.5,1.8-1.1,2.6-2S122.1,23.5,122.8,22.7z M130.5,11
		c0.8-1.1,1.6-2.2,2.5-3.2c0.9-1,1.9-2,3-2.9c-1.2,0-2.4-0.1-3.6-0.1c-1.2-0.1-2.5-0.1-3.6-0.1c-1.3,0-2.5,0.1-3.8,0.3
		c-1.3,0.2-2.5,0.6-3.5,1.4c-0.5,0.4-0.9,0.7-1.4,1.2s-0.8,0.9-1.1,1.4c-0.4,0.5-0.5,1-0.7,1.5c-0.2,0.5-0.2,1.2-0.2,1.7
		c1-0.5,2.2-0.7,3.4-0.7c1.3,0,2.5,0.2,3.6,0.5c1.3,0.5,2.5,1,3.6,1.6c0.3-0.5,0.5-0.8,0.8-1.3C129.9,11.8,130.3,11.3,130.5,11z"/>
	<path class="st1" d="M153.1,12.5c2.3,0,3.8,0.7,4.8,2.2c-0.5,1.5-1,2.9-1.5,4.4c-0.5,1.3-0.9,2.5-1.4,3.9s-0.9,2.6-1.3,3.7
		c0.7-0.2,1.5-0.5,2.1-0.8c0.6-0.4,1.2-0.8,1.7-1.4c0.5-0.5,1-1.1,1.4-1.6c0.4-0.6,0.7-1.3,1-1.9c0.1-0.2,0.2-0.4,0.3-0.4
		c0.2-0.1,0.3-0.1,0.4,0c0.1,0.1,0.2,0.1,0.3,0.3c0.1,0.2,0,0.3,0,0.5c-0.3,0.6-0.5,1.4-1,2c-0.5,0.7-0.9,1.4-1.5,1.9
		c-0.6,0.6-1.4,1.1-2.2,1.5s-1.7,0.8-2.8,1c-0.2,0.5-0.4,0.9-0.5,1.3c-0.1,0.4-0.2,0.5-0.2,0.6c-0.8,2.1-1.9,3.6-3.2,4.5
		s-2.9,1.4-4.7,1.4c-1.4,0-2.4-0.4-3.1-1c-0.7-0.7-1.1-1.5-1.1-2.4c0-0.9,0.3-1.8,0.8-2.8c0.6-0.9,1.5-1.6,2.8-2.2
		c-0.7-0.4-1.3-1-1.5-1.9c-0.4-0.9-0.5-1.9-0.4-3c0.1-1.1,0.4-2.2,0.8-3.4c0.5-1.2,1.2-2.2,2.1-3.2c0.9-1,2-1.7,3.3-2.4
		C149.8,12.8,151.4,12.5,153.1,12.5z M144.8,34.6c0.5,0,1.1-0.2,1.5-0.6c0.5-0.5,0.9-1,1.3-1.6c0.4-0.6,0.8-1.5,1.1-2.5
		c0.3-0.9,0.7-1.9,1-3c-0.8,0-1.6,0.2-2.3,0.5c-0.7,0.4-1.3,0.8-1.8,1.5c-0.5,0.5-0.9,1.2-1.3,1.8c-0.3,0.6-0.5,1.3-0.6,1.8
		c-0.1,0.5-0.1,1.1,0.1,1.5C144.1,34.4,144.4,34.6,144.8,34.6z M153.8,14.1c-0.1-0.1-0.2-0.3-0.3-0.5c-0.1-0.2-0.5-0.2-0.7-0.2
		c-0.7,0-1.5,0.3-2.1,0.9c-0.6,0.6-1.3,1.4-1.8,2.3c-0.5,0.9-1,1.9-1.4,3c-0.4,1.1-0.6,2.1-0.8,3c-0.2,0.9-0.2,1.7-0.1,2.3
		c0.1,0.6,0.4,0.9,0.8,0.9c0.3,0,0.5-0.1,0.9-0.3c0.3-0.2,0.5-0.5,0.8-0.7c0.3-0.3,0.5-0.6,0.7-1c0.3-0.4,0.5-0.8,0.7-1.2
		c0.5-0.9,0.9-2,1.4-3.2L153.8,14.1z"/>
	<path class="st1" d="M176,21.2c0.1-0.2,0.2-0.4,0.3-0.4c0.1-0.1,0.3-0.1,0.4,0c0.1,0.1,0.2,0.1,0.3,0.3c0.1,0.2,0,0.3,0,0.5
		c-0.7,1.9-1.6,3.4-2.8,4.5c-1.2,1.1-2.5,1.6-3.8,1.6c-0.9,0-1.6-0.3-2.2-0.7c-0.5-0.5-0.8-1.2-0.9-2.1c-0.5,0.9-1.1,1.6-1.7,2.1
		c-0.6,0.5-1.4,0.7-2.2,0.7c-1.6,0-2.7-0.7-3.3-2.2s-0.4-3.6,0.5-6.2c0.3-0.8,0.5-1.6,0.9-2.5c0.4-0.8,0.8-1.5,1.3-2.2
		c0.5-0.6,1-1.1,1.6-1.5c0.6-0.4,1.3-0.5,2.1-0.5h1.1c-0.7,1.5-1.5,3.1-2.1,4.7c-0.6,1.6-1.2,3.2-1.5,4.6c-0.4,1.4-0.5,2.5-0.6,3.4
		c0,0.9,0.2,1.4,0.6,1.4c0.4,0,0.7-0.2,1-0.5c0.4-0.3,0.7-0.7,1-1.2c0.4-0.5,0.6-1,1-1.6c0.3-0.5,0.5-1.2,0.8-1.7
		c0-0.1,0-0.1,0.1-0.2l2.2-6.3c0.3-0.7,0.7-1.3,1.4-1.7c0.6-0.5,1.3-0.6,2.1-0.6h2c-0.6,1.7-1.2,3.3-1.6,4.7
		c-0.2,0.6-0.5,1.3-0.6,1.9c-0.2,0.6-0.5,1.3-0.6,1.8c-0.2,0.5-0.4,1.1-0.5,1.5c-0.2,0.5-0.3,0.7-0.4,1c-0.4,0.9-0.5,1.5-0.4,1.9
		c0.1,0.4,0.3,0.5,0.6,0.5c0.2,0,0.5-0.1,0.8-0.3c0.4-0.2,0.6-0.5,1.1-0.8c0.4-0.4,0.8-0.8,1.2-1.5C175.3,22.8,175.7,22.1,176,21.2z
		"/>
	<path class="st1" d="M186.3,13.7c0.2,0.3,0.2,0.5,0.1,0.8c-0.1,0.3-0.3,0.5-0.5,0.6c-0.2,0.2-0.5,0.2-0.7,0.1
		c-0.3-0.1-0.5-0.3-0.6-0.5c-0.3-0.7-0.8-1.1-1.5-1.1c-0.4,0-0.8,0.2-1.2,0.5c-0.4,0.4-0.5,0.8-0.5,1.4s0.2,1.1,0.5,1.5
		c0.4,0.5,0.7,1,1.1,1.5s0.7,1.2,1,1.9c0.3,0.7,0.4,1.5,0.3,2.6c-0.1,0.9-0.4,1.7-0.8,2.3c-0.5,0.5-0.9,1-1.5,1.4
		c0.8-0.2,1.6-0.5,2.3-0.8c0.6-0.4,1.3-0.8,1.8-1.4c0.5-0.5,1-1.1,1.4-1.6c0.4-0.5,0.7-1.2,0.9-1.7c0.1-0.2,0.2-0.4,0.3-0.4
		c0.1-0.1,0.3-0.1,0.4,0c0.1,0.1,0.2,0.1,0.2,0.3c0.1,0.2,0,0.3,0,0.5c-0.3,0.6-0.6,1.4-1.2,2.2c-0.5,0.7-1.2,1.5-1.9,2.2
		c-0.7,0.6-1.6,1.2-2.7,1.6c-1,0.5-2.2,0.6-3.4,0.6c-0.7,0-1.3,0-1.8-0.1s-1-0.2-1.4-0.3h-0.4c-0.8,0-1.5-0.1-2-0.4
		c-0.5-0.3-0.8-0.5-1-0.8c-0.2-0.3-0.3-0.6-0.3-1c0-0.4,0.2-0.6,0.4-0.9c0.2-0.3,0.5-0.4,0.7-0.4c0.3,0,0.5,0.1,0.9,0.5
		c0.3,0.3,0.5,0.5,0.8,0.8c0.3,0.4,0.7,0.6,1.3,0.9c0.5-0.2,1.1-0.5,1.6-1c0.5-0.5,0.9-1.2,1.2-2c0.2-0.5,0.2-0.9,0.1-1.4
		c-0.1-0.5-0.3-0.8-0.5-1.3c-0.3-0.5-0.5-0.8-0.8-1.3c-0.3-0.5-0.5-0.8-0.7-1.3c-0.2,0.5-0.4,1.2-0.5,1.7s-0.4,1.1-0.5,1.5
		c-0.1,0.3-0.3,0.5-0.5,0.6c-0.2,0.1-0.3,0.2-0.4,0.1c-0.1-0.1-0.2-0.2-0.2-0.4c0-0.2,0-0.5,0.1-0.7c0.7-2.1,1.4-3.9,1.8-5.4
		c0.3-1,0.9-1.8,2-2.4c1.1-0.5,2.4-0.8,3.8-0.8c0.6,0,1.2,0.1,1.6,0.4C185.7,13.5,186.1,13.3,186.3,13.7z"/>
	<path class="st1" d="M196.6,21.2c0.1-0.2,0.2-0.4,0.3-0.4c0.1-0.1,0.3-0.1,0.4,0s0.2,0.1,0.3,0.3c0.1,0.2,0.1,0.3,0,0.5
		c-0.7,1.9-1.6,3.4-2.8,4.5c-1.2,1.1-2.5,1.6-3.8,1.6c-0.6,0-1.3-0.1-1.7-0.4s-0.8-0.6-1.1-1.2c-0.2-0.5-0.3-1.2-0.3-2
		c0.1-0.8,0.3-1.7,0.6-2.8c0.2-0.5,0.4-1,0.5-1.5c0.2-0.5,0.5-1.2,0.6-1.8c0.2-0.6,0.5-1.3,0.7-2c0.3-0.7,0.5-1.4,0.7-2h-1.5l0.5-1
		h1.5l0.4-0.9c0.3-0.8,0.5-1.5,0.9-2.1c0.4-0.5,0.7-1,1.2-1.4c0.5-0.4,1-0.5,1.6-0.7c0.6-0.1,1.4-0.2,2.2-0.2l0,0
		c-0.2,0.5-0.4,1-0.5,1.5c-0.2,0.5-0.4,1-0.6,1.6c-0.2,0.6-0.5,1.3-0.7,2l2.5-0.2l-0.7,1.3h-2.1l-3.3,9.6c-0.4,0.9-0.5,1.5-0.4,1.9
		c0.1,0.4,0.3,0.5,0.6,0.5c0.2,0,0.5-0.1,0.8-0.3c0.4-0.2,0.7-0.5,1.1-0.8c0.4-0.4,0.7-0.8,1.2-1.5
		C195.9,22.8,196.3,22.1,196.6,21.2z"/>
	<path class="st1" d="M204.8,21.2c0.1-0.2,0.2-0.4,0.3-0.4c0.1-0.1,0.3-0.1,0.4,0s0.2,0.1,0.3,0.3c0.1,0.2,0,0.3,0,0.5
		c-0.7,1.9-1.6,3.4-2.8,4.5c-1.2,1.1-2.5,1.6-3.8,1.6c-0.6,0-1.3-0.1-1.7-0.4s-0.8-0.6-1-1.2c-0.2-0.5-0.3-1.2-0.3-2
		c0.1-0.8,0.3-1.7,0.6-2.8l2.2-6.3c0.3-0.7,0.7-1.3,1.4-1.7c0.6-0.5,1.3-0.6,2.1-0.6h2c-0.6,1.7-1.2,3.3-1.6,4.7
		c-0.2,0.6-0.5,1.3-0.6,1.9c-0.2,0.6-0.5,1.3-0.6,1.8c-0.2,0.5-0.4,1.1-0.5,1.5c-0.2,0.5-0.3,0.7-0.4,1c-0.4,0.9-0.5,1.5-0.4,1.9
		c0.1,0.4,0.3,0.5,0.6,0.5c0.2,0,0.5-0.1,0.8-0.3c0.4-0.2,0.6-0.5,1.1-0.8c0.4-0.4,0.8-0.8,1.2-1.5
		C204.1,22.8,204.4,22.1,204.8,21.2z M205,10.4c-0.5,0.5-1.1,0.8-1.6,0.8c-0.6,0.1-1.2-0.1-1.5-0.5c-0.5-0.5-0.6-1-0.6-1.6
		c0-0.6,0.3-1.3,0.7-1.8c0.5-0.5,1.1-0.8,1.6-0.8c0.6-0.1,1.2,0.2,1.5,0.5c0.5,0.5,0.6,1,0.6,1.6C205.7,9.3,205.5,10,205,10.4z"/>
	<path class="st1" d="M217,26c0.4,0,0.8-0.1,1.3-0.4c0.5-0.3,0.9-0.5,1.4-1s0.8-0.9,1.3-1.5c0.4-0.6,0.7-1.3,1-1.9
		c0.1-0.2,0.2-0.4,0.3-0.4c0.1-0.1,0.3-0.1,0.4,0s0.2,0.1,0.2,0.3c0.1,0.2,0,0.3,0,0.5c-0.3,0.6-0.6,1.4-1,2.1c-0.5,0.7-1,1.4-1.5,2
		c-0.5,0.6-1.3,1.1-2,1.5c-0.7,0.4-1.5,0.5-2.4,0.5c-0.6,0-1.3-0.2-1.7-0.5c-0.5-0.3-0.9-0.8-1.1-1.5c-0.3-0.6-0.4-1.5-0.3-2.4
		c0.1-0.9,0.4-2,0.9-3.3c0.9-2.1,1.4-3.6,1.6-4.5c0.2-0.9,0-1.4-0.5-1.5c-0.4-0.1-0.8,0.1-1.5,0.5c-0.5,0.5-1.2,1.2-1.9,2.2
		c-0.7,1.1-1.5,2.5-2.3,4.2c-0.8,1.7-1.6,3.9-2.5,6.5l0,0h-0.1c-1.1,0-1.8-0.4-2.3-1.2c-0.5-0.8-0.5-1.9,0.1-3.2l3.7-10.7h0.5
		c0.5,0,0.8,0.1,1.2,0.3s0.6,0.5,0.8,0.7c0.2,0.3,0.4,0.6,0.5,1.1c0.1,0.4,0,0.8-0.1,1.2l-0.2,0.4c0.7-1.1,1.5-2,2.4-2.6
		c0.8-0.6,1.7-1,2.6-1c1.9,0,3.1,0.6,3.5,2c0.4,1.4,0,3.4-1,5.9c-0.7,1.9-1.2,3.4-1.3,4.2C216.5,25.6,216.6,26,217,26z"/>
	<path class="st1" d="M239,21.2c0.1-0.2,0.2-0.4,0.3-0.4c0.1-0.1,0.3-0.1,0.4,0c0.1,0.1,0.2,0.1,0.3,0.3c0.1,0.2,0.1,0.3,0,0.5
		c-0.7,1.9-1.6,3.4-2.8,4.5c-1.2,1.1-2.5,1.6-3.8,1.6c-0.9,0-1.6-0.3-2.2-0.7c-0.5-0.5-0.8-1.2-0.8-2.2c-0.5,0.7-1.3,1.4-2.1,2
		c-0.8,0.6-1.7,0.9-2.7,0.9c-1.1,0-1.9-0.4-2.5-1.1c-0.6-0.7-1-1.6-1.1-2.8c-0.1-1.1,0.1-2.4,0.5-3.6c0.4-1.3,1-2.5,1.9-3.6
		c0.9-1.1,2-2.1,3.5-2.8c1.4-0.7,3.1-1.1,5-1.1c1.4,0,2.4,0.2,3.2,0.5c0.7,0.4,1.4,0.9,1.8,1.6c-0.5,1.5-1,2.8-1.4,4
		c-0.2,0.5-0.4,1-0.5,1.5c-0.2,0.5-0.4,1-0.5,1.4c-0.2,0.5-0.3,0.8-0.4,1.1c-0.1,0.3-0.2,0.5-0.2,0.6c-0.4,0.9-0.5,1.5-0.4,1.9
		c0.1,0.4,0.3,0.5,0.6,0.5c0.2,0,0.5-0.1,0.8-0.3s0.7-0.5,1.1-0.8c0.4-0.4,0.7-0.8,1.2-1.5C238.2,22.8,238.6,22.1,239,21.2z
		 M233.3,14.1c-0.1-0.1-0.2-0.3-0.4-0.5c-0.2-0.2-0.5-0.2-0.8-0.2c-0.7,0-1.5,0.3-2.1,0.9c-0.6,0.6-1.3,1.4-1.8,2.3
		c-0.5,0.9-1,1.9-1.4,3c-0.4,1.1-0.6,2.1-0.8,3c-0.2,0.9-0.2,1.7-0.1,2.3c0.1,0.6,0.4,0.9,0.8,0.9c0.3,0,0.5-0.1,0.9-0.3
		c0.3-0.2,0.5-0.5,0.8-0.7c0.3-0.3,0.5-0.6,0.7-1c0.3-0.4,0.5-0.8,0.6-1.2c0.5-0.9,0.9-2,1.4-3.2L233.3,14.1z"/>
</g>
</svg>
