<?xml version="1.0" encoding="utf-8"?>
<!-- Generator: Adobe Illustrator 28.0.0, SVG Export Plug-In . SVG Version: 6.00 Build 0)  -->
<svg version="1.1" id="Capa_1" xmlns="http://www.w3.org/2000/svg" xmlns:xlink="http://www.w3.org/1999/xlink" x="0px" y="0px"
	 viewBox="0 0 266.6 128.8" style="enable-background:new 0 0 266.6 128.8;" xml:space="preserve">
<style type="text/css">
	.st0{fill-rule:evenodd;clip-rule:evenodd;fill:#FFFFFF;}
	.st1{fill:#FFFFFF;}
</style>
<path class="st0" d="M111.4,73.2c0.4-0.3,1.6-1.8,3.3-3.1c3.5-2.8,8-5.5,9.1-10.1c0.9-4.2-1.3-7.4-4.1-8.5c-5-2.1-7.2,2.5-8.3,3.5
	c-0.4-0.4-0.9-1.2-1.3-1.7s-1.2-1.1-1.8-1.5c-6.4-3.9-15.5,6.9-3.8,15.5l5.3,4.3C110.3,72.1,110.9,72.8,111.4,73.2L111.4,73.2
	L111.4,73.2z"/>
<path class="st1" d="M76.6,29.2H18.5c-0.6,0-1-0.5-1-1s0.5-1,1-1h58.1c0.6,0,1,0.5,1,1S77.2,29.2,76.6,29.2z"/>
<path class="st1" d="M243.9,29.2H186c-0.6,0-1-0.5-1-1s0.5-1,1-1h57.9c0.6,0,1,0.5,1,1S244.5,29.2,243.9,29.2z"/>
<path class="st0" d="M37.1,99.3c-3.7,0.5-5.9,1.1-8.3,3c-4.4,3.6-1.6,12.2,8.6,5.9c1.4-0.8,2.2-1.5,3.3-2.5c1.2-1.1,1.6-1.9,2.9-3
	c2.6,0.8,4.8,2.1,8.8,3.3c1.5,0.4,3.1,0.8,4.8,1.2c1.1,0.3,4.2,0.7,5.1,1.1c-0.7,0.4-11.1,3.1-10,10.1c0.3,1.8,1.8,3,3.6,3.3
	c4.8,0.7,10.1-4.7,12.5-8.1c1.1-1.6,1.4-2.9,2.2-4.7c3.4-0.1,6.7,0,10.1-0.3c4.7-0.3,7.9,0,7.1-2.9c-1.5-0.7-6,0.3-8.2,0.4
	c-3,0.1-6.2,0.3-9.3,0.1c-0.8-3.6-4.7-10.9-8.1-12.6c-3.3-1.6-8.2,0.8-5.3,7.9c0.5,1.5,1.4,2.2,2.1,3.3c-5.5-0.5-11.4-3.8-14.4-4.5
	c-0.1-4.8-2.5-13.7-6.8-14.5C32.6,85.2,30.6,92.9,37.1,99.3L37.1,99.3L37.1,99.3L37.1,99.3z"/>
<path class="st0" d="M208.2,106.3c0.5-0.3,1.1-1,1.6-1.5c1.2-1.2,1.2-1,1.5-1.9c-2.7,0.4-5.9,2.2-8.9,2.3c0.4-1,1.2-1.6,1.9-3.1
	c2.9-6.8-1.5-9.9-5.2-8.1c-2.7,1.2-7.3,8.5-8.1,12.6c-3.1,0-6.2,0-9.3-0.1c-2.2-0.1-6.7-1.1-8.2-0.4c-0.5,2.1,0.4,2.2,2.3,2.3
	c6,0.7,9.7,0.4,14.9,0.7c1.2,2.2,2.1,5.3,5.3,8.2c1.9,1.6,5.1,4.9,9.2,4.5c4.7-0.5,5.9-7.3-1.4-11.5c-2.5-1.5-4.1-1.6-4.8-2.1
	C199.8,108.2,206.9,106.7,208.2,106.3L208.2,106.3L208.2,106.3L208.2,106.3z"/>
<path class="st0" d="M211.3,102.9c-0.3,1-0.3,0.8-1.5,1.9c-0.5,0.5-1.1,1.2-1.6,1.5c4-1.2,6.8-2.6,9.4-3.4c1.9,1.9,2.5,3.3,6,5.3
	c10.8,6.2,13-2.3,8.9-5.7c-2.1-1.8-5.1-2.7-8.5-3c1.4-1.8,3.3-3,4-6.8c0.5-3.4-0.5-6.8-4.1-6.4c-4.8,0.5-7.1,9.9-7.1,14.5
	L211.3,102.9L211.3,102.9L211.3,102.9L211.3,102.9z"/>
<path class="st0" d="M121.4,107.9c0.3,1.8,3.3,5.1,4.2,6.3c0.5,0.7,0.5,0.7,1.2,1.4c3.3,3.1,3.3,7.4,9.4-1.8c1.4-2.1,2.9-4.2,4-6.8
	l-2.5-2.5c-0.8-1.1-1-0.8-1.8-1.8c-0.3-0.3-0.4-0.5-0.7-0.8c-1.1-1-0.8-0.5-1.6-2.1c-1,0.5-1.8,2.3-2.5,3.3
	c-1.4-1.4-1.2-2.7-2.1-3.3c-0.1,0.7-1.4,1.6-2.3,2.7c-0.3,0.3-0.4,0.4-0.5,0.4c-0.4,0.4-0.5,0.5-1,0.8L121.4,107.9L121.4,107.9
	L121.4,107.9z M121.4,107.9l3.8-3.8c0.3-0.4,0.5-0.5,1-0.8c0.1-0.1,0.3-0.3,0.5-0.4c1-1.1,2.2-2.1,2.3-2.7c-0.3-1.6-3.8-7.7-7.9-3
	C118.4,100.1,119.8,106.3,121.4,107.9L121.4,107.9L121.4,107.9z M133.6,100c0.8,1.5,0.5,1,1.6,2.1c0.4,0.3,0.5,0.5,0.7,0.8
	c0.8,1,0.8,0.7,1.8,1.8l2.5,2.5c0.4-1.6,1.1-2.5,1.4-4.5c0.3-3-1.2-8.3-5.2-5.6C135.6,97.4,133.6,99,133.6,100L133.6,100L133.6,100
	L133.6,100z M159,103.8L159,103.8z"/>
<path class="st0" d="M95.7,107.1c0.1,1.4,2.3,3.6,3,4.5c0.4,0.4,0.3,0.4,0.8,1c2.3,2.3,2.3,5.3,6.7-1.2c1-1.5,2.1-3,2.9-4.9
	l-1.8-1.8c-0.5-0.8-0.7-0.5-1.2-1.2c-0.1-0.3-0.3-0.4-0.5-0.5c-0.8-0.7-0.5-0.4-1.2-1.4c-0.7,0.4-1.2,1.6-1.8,2.3
	c-1-1-0.8-2.1-1.5-2.3c-0.1,0.5-1,1.2-1.6,1.9c-0.1,0.1-0.3,0.3-0.3,0.3c-0.3,0.3-0.4,0.4-0.7,0.5L95.7,107.1L95.7,107.1L95.7,107.1
	L95.7,107.1z M95.7,107.1l2.7-2.7c0.3-0.3,0.4-0.4,0.7-0.5c0,0,0.3-0.1,0.3-0.3c0.7-0.7,1.6-1.4,1.6-1.9c-0.1-1.2-2.7-5.5-5.6-2.2
	C93.5,101.6,94.5,106,95.7,107.1L95.7,107.1L95.7,107.1L95.7,107.1z M104.3,101.5c0.5,1.1,0.4,0.7,1.2,1.4c0.3,0.3,0.3,0.4,0.5,0.5
	c0.5,0.7,0.5,0.4,1.2,1.2l1.8,1.8c0.3-1.1,0.8-1.8,1-3.3c0.3-2.2-0.8-6-3.7-4C105.7,99.7,104.3,100.8,104.3,101.5L104.3,101.5
	L104.3,101.5z M122.5,104.2L122.5,104.2z"/>
<path class="st0" d="M154,107.1c0.1,1.4,2.3,3.6,3,4.5c0.4,0.4,0.3,0.4,0.8,1c2.3,2.3,2.3,5.3,6.7-1.2c1-1.5,2.1-3,2.9-4.9l-1.8-1.8
	c-0.5-0.8-0.7-0.5-1.2-1.2c-0.1-0.3-0.3-0.4-0.5-0.5c-0.8-0.7-0.5-0.4-1.2-1.4c-0.7,0.4-1.2,1.6-1.8,2.3c-1-1-0.8-2.1-1.5-2.3
	c-0.1,0.5-1,1.2-1.6,1.9c-0.1,0.1-0.3,0.3-0.3,0.3c-0.3,0.3-0.4,0.4-0.7,0.5L154,107.1L154,107.1L154,107.1L154,107.1z M154,107.1
	l2.7-2.7c0.3-0.3,0.4-0.4,0.7-0.5c0,0,0.3-0.1,0.3-0.3c0.7-0.7,1.6-1.4,1.6-1.9c-0.1-1.2-2.7-5.5-5.6-2.2
	C151.8,101.6,152.7,106,154,107.1L154,107.1C154,107.2,154,107.1,154,107.1z M162.7,101.5c0.5,1.1,0.4,0.7,1.2,1.4
	c0.3,0.3,0.3,0.4,0.5,0.5c0.5,0.7,0.5,0.4,1.2,1.2l1.8,1.8c0.3-1.1,0.8-1.8,1-3.3c0.3-2.2-0.8-6-3.7-4
	C164.1,99.7,162.7,100.8,162.7,101.5L162.7,101.5L162.7,101.5z M180.8,104.2L180.8,104.2z"/>
<path class="st0" d="M66.8,110.4c-3,0-5.7,1-7.9,2.3c-1.4,0.8-5.9,3.6-3.7,6C57.4,121.2,65.9,115,66.8,110.4L66.8,110.4z"/>
<path class="st0" d="M194.5,110.4c0.3,2.1,2.9,5.1,4.2,6c7.7,6,11.6,0.8,3.8-3.7C200.2,111.3,197.8,110.5,194.5,110.4L194.5,110.4
	L194.5,110.4L194.5,110.4z"/>
<path class="st0" d="M194.1,106.4c3.8-0.1,4.7-1,6.6-3c3.8-4.2,2.3-9.6-1.6-6.4C196.8,98.6,194.6,103.8,194.1,106.4L194.1,106.4
	L194.1,106.4z"/>
<path class="st0" d="M67.1,106.4c-0.3-1.8-1.9-5.5-2.7-6.8c-0.7-1.1-3.7-5.2-5.6-2.9c-1.4,1.6,1,5.7,1.8,6.7
	C62.4,105.5,63.4,106.1,67.1,106.4L67.1,106.4L67.1,106.4L67.1,106.4z"/>
<path class="st0" d="M220.6,102c1.4,3.1,9.2,7.3,10.9,5.2C233.9,104.9,227.2,101.2,220.6,102L220.6,102z"/>
<path class="st0" d="M30,107.8c4.4,0.3,9.9-3.6,10.5-5.7c-3.7-0.3-7.9,0.3-10.5,2.9C28.5,106.3,29.2,106.6,30,107.8L30,107.8
	L30,107.8z"/>
<path class="st0" d="M217.5,99.2c3.1-0.4,8.1-7.4,5.6-9.7C220.1,86.4,217.8,95.9,217.5,99.2L217.5,99.2z"/>
<path class="st0" d="M39.8,99.2c-0.3-2.3-0.7-4.8-1.5-6.7c-3-7-7-2.2-3.1,3C35.9,96.7,37.9,98.6,39.8,99.2L39.8,99.2z"/>
<g>
	<path class="st1" d="M4.8,59.2c0.5,1,1.2,1.9,2,2.7c0.8,0.8,1.7,1.4,2.7,1.9c1,0.5,2,0.9,3.1,1.2c1.1,0.3,2.2,0.5,3.4,0.5
		c0.3-0.6,0.5-1.3,0.8-1.9c0.2-0.6,0.5-1.3,0.8-1.9c0.7-1.6,1.4-3.2,2.1-4.8c0.7-1.6,1.6-3.1,2.5-4.6c0.5-0.8,1.2-1.6,1.9-2.4
		c0.8-0.9,1.6-1.6,2.6-2.3c0.9-0.7,1.9-1.3,3-1.7c1.1-0.4,2.1-0.6,3.2-0.5c0.7,0.1,1.3,0.3,1.9,0.7c0.6,0.4,1,0.9,1.3,1.5
		c0.4,0.7,0.5,1.5,0.6,2.3c0,0.8-0.1,1.6-0.3,2.4s-0.5,1.5-0.9,2.3c-0.4,0.8-0.8,1.4-1.2,2c-1,1.3-2,2.6-3.2,3.8
		c-1.2,1.2-2.5,2.2-3.8,3.1c-1.1,0.8-2.3,1.5-3.6,2.1c-1.2,0.6-2.5,1-3.9,1.4c-0.3,0.5-0.7,1.1-1,1.6c-0.4,0.5-0.7,1-1.1,1.5
		c0.9,0.3,2,0.8,3.1,1.3c1.2,0.5,2.3,1.1,3.5,1.5c1.2,0.5,2.3,0.8,3.3,1c1.1,0.2,2,0.1,2.7-0.3c0.1-0.1,0.2-0.1,0.4-0.3
		c0.2-0.1,0.3-0.2,0.3-0.1c0.1,0.1,0.1,0.4,0,0.8s-0.2,0.7-0.3,0.9c-0.5,0.9-1.2,1.5-2.1,1.8s-1.7,0.5-2.7,0.5
		c-0.9,0-1.9-0.1-2.8-0.4c-0.9-0.2-1.8-0.5-2.6-0.8c-1.1-0.4-2.2-0.8-3.3-1.3c-1.1-0.5-2.1-0.9-3.2-1.4c-1,0.8-2.2,1.4-3.3,1.7
		c-1.2,0.4-2.4,0.5-3.6,0.4c-0.7,0-1.3-0.2-1.8-0.5c-0.6-0.3-1-0.6-1.3-1.1c-0.3-0.4-0.4-0.9-0.4-1.5c0-0.6,0.3-1.2,0.8-1.8
		C5,70,5.7,69.5,6.5,69.1c0.8-0.3,1.6-0.6,2.5-0.6c0.9-0.1,1.8-0.1,2.7,0.1c0.9,0.1,1.8,0.3,2.7,0.6l0.7-1.5c-1.2,0-2.5-0.1-3.7-0.3
		C10.2,67,9.1,66.6,8,66c-0.7-0.4-1.4-0.8-2-1.4c-0.6-0.5-1.1-1.2-1.5-1.9c-0.2-0.4-0.3-0.8-0.4-1.2c-0.1-0.4-0.1-0.9,0-1.3
		c0,0,0-0.1,0.1-0.3s0.1-0.3,0.2-0.5c0.1-0.1,0.1-0.3,0.2-0.3S4.8,59.1,4.8,59.2z M9.3,74.3c0.5-0.1,1.1-0.4,1.6-0.7
		c0.5-0.3,0.9-0.6,1.3-1l-1.8-0.7c-0.5-0.2-1.1-0.3-1.7-0.3c-0.6,0-1.1,0-1.6,0.1c-0.5,0.1-0.9,0.3-1.2,0.6c-0.3,0.3-0.4,0.6-0.4,1
		c0,0.3,0.2,0.5,0.4,0.7c0.2,0.2,0.5,0.3,0.9,0.4c0.4,0.1,0.8,0.1,1.2,0.1C8.4,74.4,8.8,74.4,9.3,74.3z M22.6,61.3
		c-0.3,0.7-0.6,1.3-0.8,2c-0.3,0.7-0.6,1.3-0.9,1.9c1.2-0.3,2.3-0.7,3.4-1.3c1.1-0.5,2.1-1.3,3.1-2.1c1-0.9,1.9-1.9,2.6-3
		c0.8-1.1,1.4-2.3,1.9-3.5c0.5-1.2,0.9-2.5,1-3.7c0.1-0.5,0.1-1,0-1.6c-0.1-0.6-0.2-1.1-0.5-1.5c-0.2-0.4-0.6-0.7-1-0.9
		s-1-0.1-1.7,0.2c-0.5,0.3-1,0.6-1.4,1.1c-0.4,0.5-0.8,0.9-1.1,1.5c-0.3,0.5-0.6,1.1-0.8,1.6c-0.2,0.6-0.5,1.1-0.7,1.6
		c-0.5,1.3-1.1,2.6-1.5,3.9C23.7,58.7,23.2,60,22.6,61.3z"/>
	<path class="st1" d="M50.5,66.9c0.1-0.2,0.2-0.4,0.3-0.4c0.1-0.1,0.3-0.1,0.4,0s0.2,0.1,0.3,0.3c0.1,0.2,0,0.3,0,0.6
		c-0.8,2.1-1.8,3.7-3.1,4.9C47,73.4,45.6,74,44.1,74c-1,0-1.8-0.3-2.4-0.8c-0.6-0.5-0.9-1.3-1-2.3c-0.6,1-1.2,1.8-1.9,2.3
		c-0.7,0.5-1.5,0.8-2.4,0.8c-1.8,0-3-0.8-3.6-2.4c-0.6-1.6-0.4-3.9,0.5-6.8c0.3-0.9,0.6-1.8,1-2.7c0.4-0.9,0.9-1.7,1.4-2.4
		c0.5-0.7,1.1-1.2,1.8-1.7c0.7-0.4,1.4-0.6,2.3-0.6h1.2c-0.8,1.7-1.6,3.4-2.3,5.2c-0.7,1.8-1.3,3.5-1.7,5c-0.4,1.5-0.6,2.7-0.7,3.7
		c0,1,0.2,1.5,0.7,1.5c0.4,0,0.8-0.2,1.1-0.5c0.4-0.3,0.8-0.8,1.1-1.3c0.4-0.5,0.7-1.1,1.1-1.8c0.3-0.6,0.6-1.3,0.9-1.9
		c0-0.1,0-0.1,0.1-0.2l2.4-6.9c0.3-0.8,0.8-1.4,1.5-1.9c0.7-0.5,1.4-0.7,2.3-0.7h2.2c-0.7,1.9-1.3,3.6-1.8,5.2
		c-0.2,0.7-0.5,1.4-0.7,2.1c-0.2,0.7-0.5,1.4-0.7,2c-0.2,0.6-0.4,1.2-0.6,1.6c-0.2,0.5-0.3,0.8-0.4,1.1c-0.4,1-0.5,1.7-0.4,2.1
		c0.1,0.4,0.3,0.6,0.7,0.6c0.2,0,0.5-0.1,0.9-0.3c0.4-0.2,0.7-0.5,1.2-0.9c0.4-0.4,0.9-0.9,1.3-1.6C49.7,68.7,50.1,67.9,50.5,66.9z"
		/>
	<path class="st1" d="M62.1,59.4c-0.3-0.8-0.9-1.1-1.7-1.1c-0.7,0-1.3,0.4-1.9,1.1c-0.6,0.7-1.2,1.6-1.6,2.7
		c-0.5,1.1-0.9,2.2-1.1,3.5c-0.3,1.2-0.4,2.4-0.4,3.5s0.2,2,0.5,2.7c0.3,0.7,0.8,1.1,1.6,1.1c1.3,0,2.4-0.5,3.5-1.4s2.1-2.4,3.1-4.4
		c0.1-0.2,0.2-0.3,0.4-0.4c0.1-0.1,0.3-0.1,0.4,0c0.1,0,0.2,0.1,0.3,0.3s0,0.3,0,0.5c-0.5,1.2-1.1,2.2-1.7,3.1
		c-0.6,0.9-1.3,1.6-2.1,2.2c-0.7,0.6-1.5,1-2.3,1.3s-1.6,0.4-2.3,0.4c-1.8,0-3.2-0.4-4.1-1.3c-1-0.8-1.6-1.9-1.8-3.2
		c-0.2-1.3-0.2-2.7,0.3-4.2s1.1-2.9,2-4.2c0.9-1.3,2.1-2.4,3.5-3.2c1.4-0.8,3-1.3,4.7-1.3c0.7,0,1.3,0.1,1.8,0.4s0.8,0.6,1,1
		c0.2,0.3,0.2,0.6,0.1,0.9c-0.1,0.3-0.3,0.5-0.5,0.7C63.2,60,63,60.1,62.7,60C62.4,60,62.2,59.8,62.1,59.4z"/>
	<path class="st1" d="M82.7,66.9c0.1-0.2,0.2-0.4,0.3-0.4c0.1-0.1,0.3-0.1,0.4,0s0.2,0.1,0.3,0.3c0.1,0.2,0.1,0.3,0,0.6
		c-0.8,2.1-1.8,3.7-3.1,4.9c-1.3,1.2-2.7,1.8-4.2,1.8c-1,0-1.8-0.3-2.4-0.8S73,71.9,73,70.9c-0.6,0.8-1.4,1.5-2.3,2.2
		c-0.9,0.7-1.9,1-3,1c-1.2,0-2.1-0.4-2.8-1.2s-1.1-1.8-1.2-3.1s0.1-2.6,0.5-4c0.4-1.4,1.1-2.8,2.1-4s2.2-2.3,3.8-3.1
		s3.4-1.2,5.5-1.2c1.5,0,2.6,0.2,3.5,0.6c0.8,0.4,1.5,1,2,1.8c-0.5,1.6-1.1,3.1-1.5,4.4c-0.2,0.6-0.4,1.1-0.6,1.7
		c-0.2,0.6-0.4,1.1-0.5,1.5c-0.2,0.5-0.3,0.9-0.4,1.2c-0.1,0.3-0.2,0.6-0.2,0.7c-0.4,1-0.5,1.7-0.4,2.1c0.1,0.4,0.3,0.6,0.7,0.6
		c0.2,0,0.5-0.1,0.9-0.3s0.8-0.5,1.2-0.9c0.4-0.4,0.8-0.9,1.3-1.6C81.9,68.7,82.3,67.9,82.7,66.9z M76.4,59.2
		c-0.1-0.1-0.2-0.3-0.4-0.5s-0.5-0.2-0.9-0.2c-0.8,0-1.6,0.3-2.3,1c-0.7,0.7-1.4,1.5-2,2.5c-0.6,1-1.1,2.1-1.5,3.3s-0.7,2.3-0.9,3.3
		c-0.2,1-0.2,1.9-0.1,2.5c0.1,0.7,0.4,1,0.9,1c0.3,0,0.6-0.1,1-0.3c0.3-0.2,0.6-0.5,0.9-0.8c0.3-0.3,0.6-0.7,0.8-1.1
		c0.3-0.4,0.5-0.9,0.7-1.3c0.5-1,1-2.2,1.5-3.5L76.4,59.2z"/>
	<path class="st1" d="M94,58.7c0.2,0.3,0.2,0.6,0.1,0.9s-0.3,0.5-0.5,0.7c-0.2,0.2-0.5,0.2-0.8,0.1c-0.3-0.1-0.5-0.3-0.7-0.6
		c-0.3-0.8-0.9-1.2-1.7-1.2c-0.4,0-0.9,0.2-1.3,0.6c-0.4,0.4-0.6,0.9-0.6,1.5c0,0.6,0.2,1.2,0.6,1.7c0.4,0.5,0.8,1.1,1.2,1.7
		c0.4,0.6,0.8,1.3,1.1,2.1c0.3,0.8,0.4,1.7,0.3,2.9c-0.1,1-0.4,1.9-0.9,2.5c-0.5,0.6-1,1.1-1.7,1.5c0.9-0.2,1.8-0.5,2.5-0.9
		s1.4-0.9,2-1.5c0.6-0.6,1.1-1.2,1.5-1.8c0.4-0.6,0.8-1.3,1-1.9c0.1-0.2,0.2-0.4,0.3-0.4c0.1-0.1,0.3-0.1,0.4,0s0.2,0.1,0.2,0.3
		c0.1,0.2,0,0.3,0,0.6c-0.3,0.7-0.7,1.5-1.3,2.4c-0.6,0.8-1.3,1.6-2.1,2.4c-0.8,0.7-1.8,1.3-3,1.8s-2.4,0.7-3.7,0.7
		c-0.8,0-1.4,0-2-0.1s-1.1-0.2-1.5-0.3h-0.4c-0.9,0-1.6-0.1-2.2-0.4c-0.5-0.3-0.9-0.6-1.1-0.9s-0.3-0.7-0.3-1.1c0-0.4,0.2-0.7,0.4-1
		s0.5-0.4,0.8-0.4c0.3,0,0.6,0.1,1,0.5c0.3,0.3,0.6,0.6,0.9,0.9c0.3,0.4,0.8,0.7,1.4,1c0.6-0.2,1.2-0.6,1.8-1.1
		c0.6-0.6,1-1.3,1.3-2.2c0.2-0.5,0.2-1,0.1-1.5c-0.1-0.5-0.3-0.9-0.6-1.4s-0.6-0.9-0.9-1.4s-0.6-0.9-0.8-1.4
		c-0.2,0.6-0.4,1.3-0.6,1.9c-0.2,0.6-0.4,1.2-0.6,1.7c-0.1,0.3-0.3,0.6-0.5,0.7s-0.3,0.2-0.4,0.1c-0.1-0.1-0.2-0.2-0.2-0.4
		s0-0.5,0.1-0.8c0.8-2.3,1.5-4.3,2-5.9c0.3-1.1,1-2,2.2-2.6c1.2-0.6,2.6-0.9,4.2-0.9c0.7,0,1.3,0.1,1.8,0.4S93.7,58.3,94,58.7z"/>
</g>
<g>
	<path class="st1" d="M158.2,49.6c-0.8,1.6-1.6,3.2-2.2,4.9c-0.7,1.6-1.2,3.3-1.6,5.1c-0.4,1.6-0.7,3.3-0.9,5.1
		c-0.2,1.7-0.1,3.5,0.2,5.1c0.2,1,0.6,1.8,1.2,2.5c0.6,0.7,1.3,1.4,2.1,2.1c0.2,0.1,0.2,0.3,0.1,0.3s-0.2,0.2-0.5,0.2
		c-0.2,0.1-0.5,0.1-0.7,0.1c-0.3,0-0.5,0-0.7,0c-0.5-0.1-1.1-0.2-1.6-0.3c-0.5-0.2-1-0.4-1.5-0.8c-0.9-0.7-1.6-1.5-2.2-2.5
		c-0.5-1-0.8-2.1-0.8-3.2c-0.1-1.3-0.4-2.3-0.9-3.2c-0.5-0.8-1.2-1.6-2-2.4c-0.8,1.1-1.6,2.2-2.4,3.3c-0.8,1.1-1.7,2.1-2.6,3.2
		c-0.8,0.9-1.6,1.8-2.5,2.6c-0.9,0.8-1.8,1.5-2.8,2.2c-0.9,0.6-1.8,1.1-2.8,1.5c-1,0.4-2,0.6-3.1,0.5c-1.4-0.1-2.5-0.5-3.3-1.3
		s-1.3-1.7-1.6-2.8c-0.3-1.1-0.4-2.3-0.3-3.5c0.1-1.3,0.3-2.4,0.6-3.4c0.4-1.2,0.9-2.3,1.5-3.4c0.7-1,1.5-1.9,2.4-2.7
		c0.2-0.1,0.4-0.3,0.6-0.4c0.2-0.1,0.4-0.3,0.6-0.4c-0.1-0.4-0.1-0.8-0.1-1.1s0-0.8,0-1.1c0.1-0.8,0.2-1.6,0.3-2.5
		c0.2-0.8,0.4-1.6,0.8-2.4c0.6-1.4,1.5-2.4,2.5-3.2c1.1-0.8,2.3-1.3,3.8-1.6c1.7-0.3,3.5-0.3,5.2-0.1c1.7,0.3,3.4,0.6,5.1,1
		c0.9,0.2,1.7,0.4,2.6,0.6c0.9,0.2,1.7,0.3,2.6,0.4c0.8-0.4,1.6-0.7,2.4-1c0.8-0.2,1.8-0.3,2.8-0.1c0.6,0.1,0.9,0.3,1,0.6
		c0.1,0.3,0,0.5-0.2,0.8c-0.2,0.3-0.6,0.5-1.1,0.7c-0.5,0.2-1.1,0.2-1.7,0.1c-0.4,0.4-0.8,0.8-1.1,1.2c-0.4,0.4-0.7,0.8-1,1.2
		c-0.8,1-1.5,1.9-2.2,2.9c-0.7,1-1.4,2-2.1,3.1l-2.9,4.3c0.4,0.4,0.8,0.8,1.2,1.3c0.4,0.5,0.7,1,1.1,1.5c0.3-1.7,0.9-3.4,1.7-5
		c0.8-1.6,1.7-3.1,2.6-4.6c0.6-1,1.3-1.9,1.9-2.8c0.7-0.9,1.4-1.8,2.2-2.6c0.1-0.1,0.3-0.1,0.4,0C158.2,49.4,158.2,49.5,158.2,49.6z
		 M136.7,68.6c1-1.4,2-2.8,2.9-4.2c0.9-1.4,1.8-2.9,2.7-4.3c-1.7-0.7-3.5-1.1-5.3-1.1c-0.7,0-1.4,0.1-2.1,0.2
		c-0.7,0.1-1.4,0.3-2,0.5c0.2,0.2,0.3,0.4,0.5,0.5c0.2,0.2,0.4,0.3,0.6,0.4c0.5,0.3,1.1,0.5,1.7,0.5c0.6,0.1,1.2,0,1.9-0.1
		c0.1,0,0.1,0.1,0.1,0.2s-0.1,0.3-0.2,0.4c-0.1,0.2-0.2,0.3-0.3,0.4c-0.1,0.1-0.2,0.2-0.2,0.2c-0.5,0.5-1.2,0.7-1.9,0.7
		c-0.8,0-1.6-0.2-2.3-0.7c-0.7-0.5-1.2-1.1-1.6-1.8c-2.2,1.5-3.6,3.4-4.4,5.6c-0.2,0.5-0.3,1-0.5,1.6c-0.1,0.6-0.2,1.2-0.2,1.8
		c0,0.6,0,1.2,0.2,1.7c0.1,0.6,0.4,1.1,0.7,1.5c0.5,0.7,1.2,1.1,2.1,1.2c0.8,0.1,1.6-0.1,2.4-0.4c1.1-0.5,2-1.2,2.9-2.2
		S135.9,69.5,136.7,68.6z M145.2,55.7c0.9-1.2,1.8-2.4,2.8-3.5c1-1.1,2.1-2.2,3.3-3.2c-1.3,0-2.6-0.1-4-0.1c-1.3-0.1-2.7-0.1-4-0.1
		c-1.4,0-2.8,0.1-4.2,0.3c-1.4,0.2-2.7,0.7-3.8,1.5c-0.5,0.4-1,0.8-1.5,1.3c-0.5,0.5-0.9,1-1.2,1.5c-0.4,0.5-0.6,1.1-0.8,1.7
		c-0.2,0.6-0.2,1.3-0.2,1.9c1.1-0.5,2.4-0.8,3.7-0.8c1.4,0,2.7,0.2,3.9,0.6c1.4,0.5,2.7,1.1,3.9,1.8c0.3-0.5,0.6-0.9,0.9-1.4
		C144.5,56.6,144.9,56.1,145.2,55.7z"/>
	<path class="st1" d="M170,57.4c2.5,0,4.2,0.8,5.3,2.4c-0.5,1.6-1.1,3.2-1.6,4.8c-0.5,1.4-1,2.8-1.5,4.3c-0.5,1.5-1,2.9-1.4,4.1
		c0.8-0.2,1.6-0.5,2.3-0.9c0.7-0.4,1.3-0.9,1.9-1.5c0.6-0.6,1.1-1.2,1.5-1.8c0.4-0.7,0.8-1.4,1.1-2.1c0.1-0.2,0.2-0.4,0.3-0.4
		c0.2-0.1,0.3-0.1,0.4,0s0.2,0.1,0.3,0.3c0.1,0.2,0,0.3,0,0.6c-0.3,0.7-0.6,1.5-1.1,2.2c-0.5,0.8-1,1.5-1.7,2.1
		c-0.7,0.7-1.5,1.2-2.4,1.7s-1.9,0.9-3.1,1.1c-0.2,0.5-0.4,1-0.5,1.4c-0.1,0.4-0.2,0.6-0.2,0.7c-0.9,2.3-2.1,3.9-3.5,4.9
		c-1.4,1-3.2,1.5-5.2,1.5c-1.5,0-2.6-0.4-3.4-1.1c-0.8-0.8-1.2-1.6-1.2-2.6c0-1,0.3-2,0.9-3.1c0.7-1,1.7-1.8,3.1-2.4
		c-0.8-0.4-1.4-1.1-1.7-2.1c-0.4-1-0.5-2.1-0.4-3.3c0.1-1.2,0.4-2.4,0.9-3.7c0.5-1.3,1.3-2.4,2.3-3.5c1-1.1,2.2-1.9,3.6-2.6
		C166.4,57.7,168.1,57.4,170,57.4z M160.9,81.7c0.6,0,1.2-0.2,1.7-0.7c0.5-0.5,1-1.1,1.4-1.8s0.9-1.7,1.2-2.7s0.8-2.1,1.1-3.3
		c-0.9,0-1.8,0.2-2.5,0.6c-0.8,0.4-1.4,0.9-2,1.6c-0.6,0.6-1,1.3-1.4,2c-0.3,0.7-0.6,1.4-0.7,2c-0.1,0.6-0.1,1.2,0.1,1.6
		C160.1,81.5,160.4,81.7,160.9,81.7z M170.8,59.2c-0.1-0.1-0.2-0.3-0.3-0.5s-0.5-0.2-0.8-0.2c-0.8,0-1.6,0.3-2.3,1
		c-0.7,0.7-1.4,1.5-2,2.5c-0.6,1-1.1,2.1-1.5,3.3c-0.4,1.2-0.7,2.3-0.9,3.3c-0.2,1-0.2,1.9-0.1,2.5c0.1,0.7,0.4,1,0.9,1
		c0.3,0,0.6-0.1,1-0.3c0.3-0.2,0.6-0.5,0.9-0.8c0.3-0.3,0.6-0.7,0.8-1.1c0.3-0.4,0.5-0.9,0.8-1.3c0.5-1,1-2.2,1.5-3.5L170.8,59.2z"
		/>
	<path class="st1" d="M195.2,66.9c0.1-0.2,0.2-0.4,0.3-0.4c0.1-0.1,0.3-0.1,0.4,0s0.2,0.1,0.3,0.3c0.1,0.2,0,0.3,0,0.6
		c-0.8,2.1-1.8,3.7-3.1,4.9c-1.3,1.2-2.7,1.8-4.2,1.8c-1,0-1.8-0.3-2.4-0.8c-0.6-0.5-0.9-1.3-1-2.3c-0.6,1-1.2,1.8-1.9,2.3
		c-0.7,0.5-1.5,0.8-2.4,0.8c-1.8,0-3-0.8-3.6-2.4c-0.6-1.6-0.4-3.9,0.5-6.8c0.3-0.9,0.6-1.8,1-2.7c0.4-0.9,0.9-1.7,1.4-2.4
		c0.5-0.7,1.1-1.2,1.8-1.7c0.7-0.4,1.4-0.6,2.3-0.6h1.2c-0.8,1.7-1.6,3.4-2.3,5.2c-0.7,1.8-1.3,3.5-1.7,5c-0.4,1.5-0.6,2.7-0.7,3.7
		c0,1,0.2,1.5,0.7,1.5c0.4,0,0.8-0.2,1.1-0.5c0.4-0.3,0.8-0.8,1.1-1.3c0.4-0.5,0.7-1.1,1.1-1.8c0.3-0.6,0.6-1.3,0.9-1.9
		c0-0.1,0-0.1,0.1-0.2l2.4-6.9c0.3-0.8,0.8-1.4,1.5-1.9c0.7-0.5,1.4-0.7,2.3-0.7h2.2c-0.7,1.9-1.3,3.6-1.8,5.2
		c-0.2,0.7-0.5,1.4-0.7,2.1c-0.2,0.7-0.5,1.4-0.7,2c-0.2,0.6-0.4,1.2-0.6,1.6c-0.2,0.5-0.3,0.8-0.4,1.1c-0.4,1-0.5,1.7-0.4,2.1
		c0.1,0.4,0.3,0.6,0.7,0.6c0.2,0,0.5-0.1,0.9-0.3c0.4-0.2,0.7-0.5,1.2-0.9c0.4-0.4,0.9-0.9,1.3-1.6
		C194.4,68.7,194.8,67.9,195.2,66.9z"/>
	<path class="st1" d="M206.5,58.7c0.2,0.3,0.2,0.6,0.1,0.9c-0.1,0.3-0.3,0.5-0.5,0.7c-0.2,0.2-0.5,0.2-0.8,0.1
		c-0.3-0.1-0.5-0.3-0.7-0.6c-0.3-0.8-0.9-1.2-1.7-1.2c-0.4,0-0.9,0.2-1.3,0.6c-0.4,0.4-0.6,0.9-0.6,1.5c0,0.6,0.2,1.2,0.6,1.7
		c0.4,0.5,0.8,1.1,1.2,1.7c0.4,0.6,0.8,1.3,1.1,2.1c0.3,0.8,0.4,1.7,0.3,2.9c-0.1,1-0.4,1.9-0.9,2.5c-0.5,0.6-1,1.1-1.7,1.5
		c0.9-0.2,1.8-0.5,2.5-0.9s1.4-0.9,2-1.5c0.6-0.6,1.1-1.2,1.5-1.8c0.4-0.6,0.8-1.3,1-1.9c0.1-0.2,0.2-0.4,0.3-0.4
		c0.1-0.1,0.3-0.1,0.4,0s0.2,0.1,0.2,0.3c0.1,0.2,0,0.3,0,0.6c-0.3,0.7-0.7,1.5-1.3,2.4c-0.6,0.8-1.3,1.6-2.1,2.4
		c-0.8,0.7-1.8,1.3-3,1.8c-1.1,0.5-2.4,0.7-3.7,0.7c-0.8,0-1.4,0-2-0.1s-1.1-0.2-1.5-0.3h-0.4c-0.9,0-1.6-0.1-2.2-0.4
		c-0.5-0.3-0.9-0.6-1.1-0.9s-0.3-0.7-0.3-1.1c0-0.4,0.2-0.7,0.4-1s0.5-0.4,0.8-0.4c0.3,0,0.6,0.1,1,0.5c0.3,0.3,0.6,0.6,0.9,0.9
		c0.3,0.4,0.8,0.7,1.4,1c0.6-0.2,1.2-0.6,1.8-1.1c0.6-0.6,1-1.3,1.3-2.2c0.2-0.5,0.2-1,0.1-1.5c-0.1-0.5-0.3-0.9-0.6-1.4
		s-0.6-0.9-0.9-1.4s-0.6-0.9-0.8-1.4c-0.2,0.6-0.4,1.3-0.6,1.9c-0.2,0.6-0.4,1.2-0.6,1.7c-0.1,0.3-0.3,0.6-0.5,0.7s-0.3,0.2-0.4,0.1
		c-0.1-0.1-0.2-0.2-0.2-0.4s0-0.5,0.1-0.8c0.8-2.3,1.5-4.3,2-5.9c0.3-1.1,1-2,2.2-2.6c1.2-0.6,2.6-0.9,4.2-0.9
		c0.7,0,1.3,0.1,1.8,0.4S206.3,58.3,206.5,58.7z"/>
	<path class="st1" d="M217.8,66.9c0.1-0.2,0.2-0.4,0.3-0.4c0.1-0.1,0.3-0.1,0.4,0s0.2,0.1,0.3,0.3c0.1,0.2,0.1,0.3,0,0.6
		c-0.8,2.1-1.8,3.7-3.1,4.9c-1.3,1.2-2.7,1.8-4.2,1.8c-0.7,0-1.4-0.1-1.9-0.4c-0.5-0.3-0.9-0.7-1.2-1.3c-0.2-0.6-0.3-1.3-0.3-2.2
		c0.1-0.9,0.3-1.9,0.7-3.1c0.2-0.5,0.4-1.1,0.6-1.7c0.2-0.6,0.5-1.3,0.7-2c0.2-0.7,0.5-1.4,0.8-2.2c0.3-0.8,0.5-1.5,0.8-2.2h-1.7
		l0.5-1.1h1.6l0.4-1c0.3-0.9,0.6-1.7,1-2.3c0.4-0.6,0.8-1.1,1.3-1.5c0.5-0.4,1.1-0.6,1.8-0.8c0.7-0.1,1.5-0.2,2.4-0.2h0
		c-0.2,0.5-0.4,1.1-0.6,1.7c-0.2,0.5-0.4,1.1-0.7,1.8c-0.2,0.7-0.5,1.4-0.8,2.2l2.7-0.2l-0.8,1.4h-2.3l-3.6,10.5
		c-0.4,1-0.5,1.7-0.4,2.1c0.1,0.4,0.3,0.6,0.7,0.6c0.2,0,0.5-0.1,0.9-0.3s0.8-0.5,1.2-0.9c0.4-0.4,0.8-0.9,1.3-1.6
		C217,68.7,217.4,67.9,217.8,66.9z"/>
	<path class="st1" d="M226.8,66.9c0.1-0.2,0.2-0.4,0.3-0.4c0.1-0.1,0.3-0.1,0.4,0s0.2,0.1,0.3,0.3c0.1,0.2,0,0.3,0,0.6
		c-0.8,2.1-1.8,3.7-3.1,4.9c-1.3,1.2-2.7,1.8-4.2,1.8c-0.7,0-1.4-0.1-1.9-0.4c-0.5-0.3-0.9-0.7-1.1-1.3c-0.2-0.6-0.3-1.3-0.3-2.2
		c0.1-0.9,0.3-1.9,0.7-3.1l2.4-6.9c0.3-0.8,0.8-1.4,1.5-1.9c0.7-0.5,1.4-0.7,2.3-0.7h2.2c-0.7,1.9-1.3,3.6-1.8,5.2
		c-0.2,0.7-0.5,1.4-0.7,2.1c-0.2,0.7-0.5,1.4-0.7,2c-0.2,0.6-0.4,1.2-0.6,1.6c-0.2,0.5-0.3,0.8-0.4,1.1c-0.4,1-0.5,1.7-0.4,2.1
		c0.1,0.4,0.3,0.6,0.7,0.6c0.2,0,0.5-0.1,0.9-0.3c0.4-0.2,0.7-0.5,1.2-0.9c0.4-0.4,0.9-0.9,1.3-1.6C226,68.7,226.4,67.9,226.8,66.9z
		 M227,55.1c-0.5,0.6-1.2,0.9-1.8,0.9c-0.7,0.1-1.3-0.1-1.7-0.6c-0.5-0.5-0.7-1.1-0.7-1.8s0.3-1.4,0.8-2c0.5-0.6,1.2-0.9,1.8-0.9
		c0.7-0.1,1.3,0.2,1.7,0.6c0.5,0.5,0.7,1.1,0.7,1.8C227.8,53.9,227.5,54.6,227,55.1z"/>
	<path class="st1" d="M240.2,72.2c0.4,0,0.9-0.1,1.4-0.4c0.5-0.3,1-0.6,1.5-1.1c0.5-0.5,0.9-1,1.4-1.7c0.4-0.7,0.8-1.4,1.1-2.1
		c0.1-0.2,0.2-0.4,0.3-0.4c0.1-0.1,0.3-0.1,0.4,0s0.2,0.1,0.2,0.3c0.1,0.2,0,0.3,0,0.6c-0.3,0.7-0.7,1.5-1.1,2.3
		c-0.5,0.8-1.1,1.5-1.7,2.2s-1.4,1.2-2.2,1.6c-0.8,0.4-1.7,0.6-2.6,0.6c-0.7,0-1.4-0.2-1.9-0.5c-0.6-0.3-1-0.9-1.2-1.6
		c-0.3-0.7-0.4-1.6-0.3-2.6s0.4-2.2,1-3.6c1-2.3,1.5-3.9,1.8-4.9c0.2-1,0-1.5-0.6-1.7c-0.4-0.1-0.9,0.1-1.6,0.6
		c-0.6,0.5-1.3,1.3-2.1,2.4c-0.8,1.2-1.6,2.7-2.5,4.6c-0.9,1.9-1.8,4.3-2.7,7.1l0,0h-0.1c-1.2,0-2-0.4-2.5-1.3
		c-0.5-0.9-0.5-2.1,0.1-3.5l4.1-11.7h0.5c0.5,0,0.9,0.1,1.3,0.3s0.7,0.5,0.9,0.8c0.2,0.3,0.4,0.7,0.5,1.2c0.1,0.4,0,0.9-0.1,1.3
		l-0.2,0.4c0.8-1.2,1.7-2.2,2.6-2.9c0.9-0.7,1.9-1.1,2.9-1.1c2.1,0,3.4,0.7,3.8,2.2c0.4,1.5,0,3.7-1.1,6.5c-0.8,2.1-1.3,3.7-1.4,4.6
		C239.6,71.8,239.8,72.2,240.2,72.2z"/>
	<path class="st1" d="M264.3,66.9c0.1-0.2,0.2-0.4,0.3-0.4c0.1-0.1,0.3-0.1,0.4,0s0.2,0.1,0.3,0.3c0.1,0.2,0.1,0.3,0,0.6
		c-0.8,2.1-1.8,3.7-3.1,4.9c-1.3,1.2-2.7,1.8-4.2,1.8c-1,0-1.8-0.3-2.4-0.8s-0.9-1.3-0.9-2.4c-0.6,0.8-1.4,1.5-2.3,2.2
		c-0.9,0.7-1.9,1-3,1c-1.2,0-2.1-0.4-2.8-1.2c-0.7-0.8-1.1-1.8-1.2-3.1c-0.1-1.2,0.1-2.6,0.5-4c0.4-1.4,1.1-2.8,2.1-4
		s2.2-2.3,3.8-3.1c1.5-0.8,3.4-1.2,5.5-1.2c1.5,0,2.6,0.2,3.5,0.6c0.8,0.4,1.5,1,2,1.8c-0.5,1.6-1.1,3.1-1.5,4.4
		c-0.2,0.6-0.4,1.1-0.6,1.7c-0.2,0.6-0.4,1.1-0.5,1.5c-0.2,0.5-0.3,0.9-0.4,1.2c-0.1,0.3-0.2,0.6-0.2,0.7c-0.4,1-0.5,1.7-0.4,2.1
		c0.1,0.4,0.3,0.6,0.7,0.6c0.2,0,0.5-0.1,0.9-0.3s0.8-0.5,1.2-0.9c0.4-0.4,0.8-0.9,1.3-1.6C263.5,68.7,263.9,67.9,264.3,66.9z
		 M258.1,59.2c-0.1-0.1-0.2-0.3-0.4-0.5s-0.5-0.2-0.9-0.2c-0.8,0-1.6,0.3-2.3,1c-0.7,0.7-1.4,1.5-2,2.5c-0.6,1-1.1,2.1-1.5,3.3
		c-0.4,1.2-0.7,2.3-0.9,3.3c-0.2,1-0.2,1.9-0.1,2.5c0.1,0.7,0.4,1,0.9,1c0.3,0,0.6-0.1,1-0.3c0.3-0.2,0.6-0.5,0.9-0.8
		c0.3-0.3,0.6-0.7,0.8-1.1c0.3-0.4,0.5-0.9,0.7-1.3c0.5-1,1-2.2,1.5-3.5L258.1,59.2z"/>
</g>
<g>
	<path class="st1" d="M88,14.2c4.1,0,5.7,4.6,5.7,8.9c0,4-1.5,9-5.7,9c-4.2,0-5.8-4.6-5.8-8.9C82.3,19.1,83.8,14.2,88,14.2z
		 M88,15.1c-2.6,0-3.2,4.1-3.2,7.9s0.8,8,3.2,8c2.5,0,3.2-4.1,3.2-8C91.2,19.2,90.5,15.1,88,15.1z"/>
	<path class="st1" d="M107.4,14.9c-2.7,5.6-5.2,11.2-7.9,16.9l-2,0.2l-0.2-0.3c2.9-4.7,5.9-10.4,8.1-15.1h-5.9
		c-1.8,0-1.9,0.2-2.7,2.1H96c0.3-1.5,0.4-2.9,0.5-4.1h10.7L107.4,14.9z"/>
	<path class="st1" d="M110.3,33.5h-1.5l7.4-20.3h1.6L110.3,33.5z"/>
	<path class="st1" d="M125.2,14.2c4.1,0,5.7,4.6,5.7,8.9c0,4-1.5,9-5.7,9c-4.2,0-5.8-4.6-5.8-8.9C119.5,19.1,121,14.2,125.2,14.2z
		 M125.2,15.1c-2.6,0-3.2,4.1-3.2,7.9s0.8,8,3.2,8c2.5,0,3.2-4.1,3.2-8C128.4,19.2,127.7,15.1,125.2,15.1z"/>
	<path class="st1" d="M144.3,28c-0.4,1.2-0.8,2.7-1.1,3.7h-10.4v-0.7c1.5-1.5,3.2-3.1,4.5-4.7c1.7-2,3.4-4.3,3.4-6.7
		c0-2.3-1.2-3.6-3.2-3.6c-1.9,0-3.1,1.5-3.8,2.6l-0.6-0.6l1.6-2.2c0.9-1,2.2-1.7,3.8-1.7c2.6,0,4.7,1.8,4.7,4.8c0,2.3-0.9,4-3.5,6.7
		c-1.2,1.2-2.9,2.9-4.1,4.1c0.2,0,5,0,5.3,0c1.5,0,1.9-0.1,2.8-1.9L144.3,28z"/>
	<path class="st1" d="M147.5,33.5H146l7.4-20.3h1.6L147.5,33.5z"/>
	<path class="st1" d="M168.1,28c-0.4,1.2-0.8,2.7-1.1,3.7h-10.4v-0.7c1.5-1.5,3.2-3.1,4.5-4.7c1.7-2,3.4-4.3,3.4-6.7
		c0-2.3-1.2-3.6-3.2-3.6c-1.9,0-3.1,1.5-3.8,2.6l-0.6-0.6l1.6-2.2c0.9-1,2.2-1.7,3.8-1.7c2.6,0,4.7,1.8,4.7,4.8c0,2.3-0.9,4-3.5,6.7
		c-1.2,1.2-2.9,2.9-4.1,4.1c0.2,0,5,0,5.3,0c1.5,0,1.9-0.1,2.8-1.9L168.1,28z"/>
	<path class="st1" d="M180.4,14.5l0.2,0.2l-0.7,1.8h-6.4c-0.2,1.5-0.6,3.7-0.9,5c1-0.4,2.6-0.8,3.3-0.8c3.4,0,5.2,2.4,5.2,4.7
		c0,1.7-0.7,3.3-2.4,4.6c-1.5,1.2-3.4,1.9-4.9,1.9c-1.3,0-2.3-0.5-2.9-1.1c-0.4-0.4-0.5-0.6-0.4-0.9c0-0.2,0.2-0.7,0.6-0.9
		c0.2-0.2,0.5-0.2,0.8,0c0.8,0.7,1.8,1.5,3.5,1.5c2.3,0,3.4-2,3.4-4.1c0-2.4-1.5-4.2-4.5-4.2c-1.1,0-2,0.2-2.8,0.5l-0.1-0.1
		c0.4-2.2,1-6.1,1.3-8.3H180.4z"/>
</g>
</svg>
